<svg id="Layer_1" data-name="Layer 1" xmlns="http://www.w3.org/2000/svg" viewBox="0 0 250 170">
    <defs>
        <style>
            .cls-1 {
                fill: #f7931e;
            }

            .cls-1,
            .cls-2,
            .cls-4 {
                stroke: #157a6e;
            }

            .cls-1,
            .cls-2,
            .cls-3,
            .cls-4,
            .cls-5 {
                stroke-linecap: round;
                stroke-width: 4px;
            }

            .cls-1,
            .cls-5 {
                stroke-linejoin: bevel;
            }

            .cls-2,
            .cls-5 {
                fill: #fff;
            }

            .cls-2,
            .cls-3,
            .cls-4 {
                stroke-linejoin: round;
            }

            .cls-3 {
                fill: #333;
            }

            .cls-3,
            .cls-5 {
                stroke: #333;
            }

            .cls-4 {
                fill: none;
            }
        </style>
    </defs>
    <line class="cls-1" x1="194.36" y1="96.26" x2="194.36" y2="110.1" />
    <line class="cls-1" x1="176.57" y1="96.26" x2="194.36" y2="96.26" />
    <line class="cls-1" x1="176.57" y1="56.24" x2="176.57" y2="96.26" />
    <line class="cls-1" x1="163.73" y1="76.25" x2="176.57" y2="76.25" />
    <line class="cls-1" x1="204.74" y1="89.84" x2="204.74" y2="84.4" />
    <line class="cls-1" x1="220.55" y1="84.4" x2="204.74" y2="84.4" />
    <line class="cls-1" x1="220.55" y1="72.54" x2="220.55" y2="84.4" />
    <line class="cls-1" x1="190.9" y1="89.84" x2="204.74" y2="89.84" />
    <line class="cls-1" x1="190.9" y1="65.13" x2="190.9" y2="89.84" />
    <line class="cls-1" x1="199.55" y1="65.13" x2="190.9" y2="65.13" />
    <line class="cls-1" x1="199.55" y1="48.23" x2="199.55" y2="65.13" />
    <rect class="cls-2" x="35.66" y="58.3" width="126.06" height="28.67" />
    <circle class="cls-3" cx="48.04" cy="72.63" r="2.79" />
    <rect class="cls-3" x="66.82" y="69.91" width="78.63" height="5.44" />
    <rect class="cls-2" x="35.66" y="97.41" width="126.06" height="28.67" />
    <circle class="cls-3" cx="48.04" cy="111.84" r="2.79" />
    <rect class="cls-3" x="66.82" y="109.12" width="78.63" height="5.44" />
    <line class="cls-4" x1="46.58" y1="86.97" x2="46.58" y2="96.52" />
    <line class="cls-4" x1="150.02" y1="88.52" x2="150.02" y2="97.41" />
    <circle class="cls-5" cx="194.36" cy="117.57" r="5.73" />
    <circle class="cls-5" cx="199.55" cy="39.47" r="5.73" />
    <circle class="cls-5" cx="176.57" cy="48.09" r="5.73" />
    <circle class="cls-5" cx="220.55" cy="65.13" r="5.73" />
    <line class="cls-1" x1="190.9" y1="89.16" x2="190.9" y2="95.97" />
</svg>